<?xml version="1.0" encoding="utf-8"?>
<!-- Generator: Adobe Illustrator 19.2.0, SVG Export Plug-In . SVG Version: 6.00 Build 0)  -->
<svg version="1.1" id="Layer_1" xmlns="http://www.w3.org/2000/svg" xmlns:xlink="http://www.w3.org/1999/xlink" x="0px" y="0px"
	 viewBox="0 0 347.3 347.3" style="enable-background:new 0 0 347.3 347.3;" xml:space="preserve">
<style type="text/css">
	.st0{fill:#FFFFFF;}
</style>
<g>
	<path class="st0" d="M16.8,341.1c0-112,0-223.9,0-335.9c104.5,0,209,0,313.5,0c0,112,0,223.9,0,335.9
		C225.8,341.1,121.3,341.1,16.8,341.1z M17.5,295.4c54.6,47.6,140.7,60.3,211.1,26.4c73.7-35.5,114.1-111.2,97.5-188.5
		c-6.3-29.1-19.7-55.2-40.6-77.7s-46-39.4-76-49.9c1.7,1.9,3.6,3.7,5.5,5.5c7.4,7.2,15.4,14,22.2,21.7c22.8,25.9,35.8,55.8,39.9,89
		c2.4,19.1,1.3,38.1-3.7,56.8c-13.1,49.6-43.9,86.9-91.8,111.7c-25.8,13.4-53.9,19.6-83.5,20.1c-21.4,0.4-42.2-2.5-62.4-8.8
		C29.7,299.8,23.7,297.6,17.5,295.4z M156.1,55.6c-0.2,0-0.4,0.1-0.6,0.1c-0.2,0.6-0.4,1.3-0.6,1.9c-2.5,8.6-4.9,17.2-7.3,25.8
		c-0.5,1.9-1.6,2.9-3.7,3.3c-6.3,1.3-12.5,2.7-18.8,4.1c-3.2,0.7-6.3,1.5-9.5,2.3c0.8,0.6,1.6,0.9,2.5,1.1
		c9.2,2.2,18.4,4.4,27.6,6.5c1.9,0.4,3,1.3,3.4,3.2c1.5,6.6,3.1,13.1,4.7,19.7c0.5,2.1,1.1,4.2,1.6,6.3c0.2,0,0.3,0,0.5,0
		c0.5-1.4,1.1-2.9,1.5-4.3c2.3-7.9,4.6-15.7,6.8-23.6c0.4-1.3,1-2,2.5-2.3c7.8-1.6,15.7-3.2,23.5-4.9c2.6-0.5,5.2-1.1,7.8-1.6
		c-0.7-0.4-1.3-0.6-2-0.7c-10.2-2.4-20.3-4.8-30.5-7.1c-1.3-0.3-2-0.9-2.3-2.1c-1.2-4.7-2.4-9.4-3.7-14.1
		C158.5,64.6,157.3,60.1,156.1,55.6z M94.2,161.3c-0.1,0-0.3,0-0.4,0c-0.2,0.5-0.3,1-0.5,1.5c-2.3,8-4.6,16.1-6.8,24.1
		c-0.4,1.3-1,1.9-2.4,2.1c-7,1.3-13.9,2.8-20.8,4.2c-1.2,0.2-2.3,0.7-3.5,1c0,0.2,0,0.4,0,0.5c1.1,0.4,2.2,0.8,3.4,1.1
		c6.4,1.5,12.7,3.2,19.1,4.3c4.2,0.7,5.7,2.5,6.4,6.2c1.4,7.3,3.4,14.5,5.2,22.1c0.3-0.8,0.4-1.2,0.6-1.6c2.2-8.3,4.4-16.6,6.5-24.9
		c0.3-1.3,1-1.7,2.2-2c7-1.4,13.9-2.8,20.8-4.2c1.5-0.3,3.1-0.8,4.6-1.1c0-0.2,0-0.3,0-0.5c-1.7-0.5-3.4-1-5.1-1.4
		c-7-1.7-14.1-3.5-21.2-5.2c-1.4-0.3-2.1-1-2.5-2.4c-0.9-3.8-2-7.6-2.9-11.5C96.1,169.6,95.2,165.5,94.2,161.3z"/>
	<path class="st0" d="M17.5,295.4c6.2,2.1,12.1,4.4,18.2,6.3c20.3,6.2,41,9.2,62.4,8.8c29.7-0.6,57.7-6.8,83.5-20.1
		c47.9-24.8,78.7-62,91.8-111.7c4.9-18.7,6-37.7,3.7-56.8c-4.1-33.2-17.1-63.1-39.9-89c-6.8-7.7-14.7-14.5-22.2-21.7
		c-1.9-1.8-3.7-3.6-5.5-5.5c30,10.5,55.1,27.4,76,49.9c20.9,22.6,34.3,48.6,40.6,77.7c16.6,77.4-23.8,153.1-97.5,188.5
		C158.2,355.7,72.1,343.1,17.5,295.4z"/>
	<path class="st0" d="M156.1,55.6c1.2,4.5,2.4,9.1,3.6,13.6c1.2,4.7,2.5,9.4,3.7,14.1c0.3,1.2,1,1.8,2.3,2.1
		c10.2,2.3,20.3,4.7,30.5,7.1c0.7,0.2,1.3,0.3,2,0.7c-2.6,0.5-5.2,1.1-7.8,1.6c-7.8,1.6-15.7,3.3-23.5,4.9c-1.5,0.3-2.1,1-2.5,2.3
		c-2.2,7.9-4.5,15.7-6.8,23.6c-0.4,1.5-1,2.9-1.5,4.3c-0.2,0-0.3,0-0.5,0c-0.5-2.1-1.1-4.2-1.6-6.3c-1.6-6.6-3.3-13.1-4.7-19.7
		c-0.4-1.9-1.5-2.8-3.4-3.2c-9.2-2.1-18.4-4.3-27.6-6.5c-0.8-0.2-1.6-0.5-2.5-1.1c3.2-0.8,6.3-1.6,9.5-2.3
		c6.3-1.4,12.5-2.8,18.8-4.1c2-0.4,3.1-1.4,3.7-3.3c2.4-8.6,4.9-17.2,7.3-25.8c0.2-0.6,0.4-1.3,0.6-1.9
		C155.7,55.7,155.9,55.6,156.1,55.6z"/>
	<path class="st0" d="M94.2,161.3c0.9,4.2,1.9,8.4,2.9,12.5c0.9,3.8,2,7.6,2.9,11.5c0.3,1.3,1.1,2.1,2.5,2.4
		c7.1,1.7,14.1,3.4,21.2,5.2c1.7,0.4,3.4,1,5.1,1.4c0,0.2,0,0.3,0,0.5c-1.5,0.4-3,0.8-4.6,1.1c-6.9,1.4-13.9,2.8-20.8,4.2
		c-1.3,0.2-1.9,0.7-2.2,2c-2.1,8.3-4.3,16.6-6.5,24.9c-0.1,0.4-0.3,0.8-0.6,1.6c-1.8-7.6-3.9-14.8-5.2-22.1
		c-0.7-3.8-2.2-5.6-6.4-6.2c-6.4-1-12.8-2.8-19.1-4.3c-1.1-0.3-2.2-0.7-3.4-1.1c0-0.2,0-0.4,0-0.5c1.2-0.3,2.3-0.8,3.5-1
		c6.9-1.4,13.9-2.8,20.8-4.2c1.4-0.3,2-0.8,2.4-2.1c2.2-8.1,4.5-16.1,6.8-24.1c0.1-0.5,0.3-1,0.5-1.5
		C94,161.3,94.1,161.3,94.2,161.3z"/>
</g>
</svg>
