<svg id="Layer_1" data-name="Layer 1" xmlns="http://www.w3.org/2000/svg" viewBox="0 0 347.3 347.3"><defs><style>.cls-1{fill:#fff;}</style></defs><title>darkMoon</title><path class="cls-1" d="M17.5,295.4c6.2,2.1,12.1,4.4,18.2,6.3a199.15,199.15,0,0,0,62.4,8.8c29.7-.6,57.7-6.8,83.5-20.1,47.9-24.8,78.7-62,91.8-111.7a151.12,151.12,0,0,0,3.7-56.8,161.91,161.91,0,0,0-39.9-89c-6.8-7.7-14.7-14.5-22.2-21.7-1.9-1.8-3.7-3.6-5.5-5.5a186.18,186.18,0,0,1,76,49.9,163.6,163.6,0,0,1,40.6,77.7c16.6,77.4-23.8,153.1-97.5,188.5C158.2,355.7,72.1,343.1,17.5,295.4Z"/><path class="cls-1" d="M156.1,55.6c1.2,4.5,2.4,9.1,3.6,13.6,1.2,4.7,2.5,9.4,3.7,14.1a2.66,2.66,0,0,0,2.3,2.1c10.2,2.3,20.3,4.7,30.5,7.1a8,8,0,0,1,2,.7c-2.6.5-5.2,1.1-7.8,1.6-7.8,1.6-15.7,3.3-23.5,4.9a2.87,2.87,0,0,0-2.5,2.3c-2.2,7.9-4.5,15.7-6.8,23.6-0.4,1.5-1,2.9-1.5,4.3h-0.5c-0.5-2.1-1.1-4.2-1.6-6.3-1.6-6.6-3.3-13.1-4.7-19.7a3.82,3.82,0,0,0-3.4-3.2c-9.2-2.1-18.4-4.3-27.6-6.5a7.66,7.66,0,0,1-2.5-1.1c3.2-.8,6.3-1.6,9.5-2.3,6.3-1.4,12.5-2.8,18.8-4.1a4.38,4.38,0,0,0,3.7-3.3c2.4-8.6,4.9-17.2,7.3-25.8,0.2-.6.4-1.3,0.6-1.9A1,1,0,0,1,156.1,55.6Z"/><path class="cls-1" d="M94.2,161.3c0.9,4.2,1.9,8.4,2.9,12.5,0.9,3.8,2,7.6,2.9,11.5a3,3,0,0,0,2.5,2.4c7.1,1.7,14.1,3.4,21.2,5.2,1.7,0.4,3.4,1,5.1,1.4v0.5c-1.5.4-3,.8-4.6,1.1l-20.8,4.2a2.26,2.26,0,0,0-2.2,2c-2.1,8.3-4.3,16.6-6.5,24.9-0.1.4-.3,0.8-0.6,1.6-1.8-7.6-3.9-14.8-5.2-22.1-0.7-3.8-2.2-5.6-6.4-6.2-6.4-1-12.8-2.8-19.1-4.3-1.1-.3-2.2-0.7-3.4-1.1v-0.5c1.2-.3,2.3-0.8,3.5-1l20.8-4.2a2.67,2.67,0,0,0,2.4-2.1c2.2-8.1,4.5-16.1,6.8-24.1a8.8,8.8,0,0,1,.5-1.5A0.16,0.16,0,0,1,94.2,161.3Z"/></svg>