<svg id="Layer_1" data-name="Layer 1" xmlns="http://www.w3.org/2000/svg" viewBox="0 0 381.11 381.12"><defs><style>.cls-1{fill:#010101;}.cls-2{fill:#fdfdfd;}.cls-3{fill:#7b7b7b;}</style></defs><title>dark-mode-switch-bg</title><path class="cls-1" d="M383.61,271.19q0,56,0,111.93c0,2-.22,2.56-2.42,2.56q-188.12-.11-376.24,0c-2.17,0-2.45-.55-2.44-2.54q0.12-40.45.05-80.9c0.75-.41,1,0,1.2.66a42.41,42.41,0,0,0,12.72,21.76,45.67,45.67,0,0,0,18.15,10.5A40.54,40.54,0,0,0,59.06,335c2-.62,3.2-0.25,4.42,1.28a42.7,42.7,0,0,0,7.46,7.47c7.9,6,17,8.66,26.7,8.74A40.08,40.08,0,0,0,120,346.31c1.27-.82,2.18-0.91,3.39.3a35.54,35.54,0,0,0,9.71,6.53c12.89,6.31,25.94,6.21,38.81.27a42.71,42.71,0,0,0,19.71-18.87,3.21,3.21,0,0,1,3.58-1.89c9.87,0.61,18.83-1.12,26.73-8,5.23-4.57,9.08-9.66,11.06-16.11,6.46-21-6.07-40.66-26.08-44.91-3.08-.65-4.12-1.94-4.72-4.82a48.42,48.42,0,0,0-16-27.34,61.67,61.67,0,0,0-8.44-5.65,45.11,45.11,0,0,0-18.28-6.15,51.45,51.45,0,0,0-11.27-.09,44.6,44.6,0,0,0-22.47,8.49c-3.6,2.59-3.48,2.7-6.36-.32a45.61,45.61,0,0,0-19.17-12.12,32.73,32.73,0,0,0-10.92-1.27c-4.4.08-8.77-.43-13.12,0.78-16,4.46-26.47,14.61-31.54,30.35-0.59,1.82-1.24,2.85-3.32,3.27-6.08,1.23-12.23,2.38-17.59,5.84A45.92,45.92,0,0,0,4,280.58c-0.23.75,0.32,2.22-1.34,2.17q0-137.7-.06-275.4c0-2.28.51-2.8,2.8-2.8q187.76,0.1,375.52,0c2.28,0,2.8.51,2.8,2.8q-0.1,131-.06,262a155,155,0,0,1-34.05-3.62A158,158,0,0,1,237,170.68a154.15,154.15,0,0,1-10.9-46.54,158.6,158.6,0,0,1,5.73-56.25,153.73,153.73,0,0,1,13.71-33c1.22-2.16.4-2.36-1.48-2.24-3.33.22-6.68,0.31-10,.56-31.39,2.3-59.47,13.39-84.3,32.52a153.23,153.23,0,0,0-44.62,54.88A158.93,158.93,0,0,0,89,198.34c0.08,1.82.57,2.4,2.39,2.53a55.05,55.05,0,0,1,30.23,11.4,3.46,3.46,0,0,0,4.3.4,59.5,59.5,0,0,1,21.74-6.33,60.49,60.49,0,0,1,38.1,8.73,61.37,61.37,0,0,1,27,33.18,6.85,6.85,0,0,0,4.4,4.71c15.21,6.08,25,17.12,29.17,33A46.48,46.48,0,0,1,242,320.64a47.48,47.48,0,0,1-17.93,18.5c-3.67,2.19-7.67,3.5-12.1,5.34,1.22,0.36,1.84.61,2.48,0.73,20.1,3.87,40.21,4.47,60.44.8a156.41,156.41,0,0,0,106.43-72.87C381.78,272.4,381.84,270.61,383.61,271.19Zm-40.08-103a97.59,97.59,0,0,0-8.68,5c-3.18,2.31-6,2.43-9.38.33-2.64-1.66-5.65-2.73-9-4.3,1,4.58,1.76,8.55,2.69,12.47a3.87,3.87,0,0,1-1.16,4c-2.85,3-6.08,5.71-8.67,9.28,4.13,0.46,7.84,1.05,11.58,1.23a5.17,5.17,0,0,1,4.86,3.36c1.62,3.33,3.42,6.57,5.48,10.49,2-4.29,3.84-8,5.38-11.74a3.69,3.69,0,0,1,3.28-2.55c4-.67,8.14-0.93,12.32-2.43-3.21-3-6.06-5.84-9.14-8.43a4,4,0,0,1-1.48-4.24C342.27,176.68,342.84,172.68,343.52,168.15ZM21.78,152.23c1.79,2.73,4,4.48,6,6.39,1.43,1.35,2.23,2.6,1.73,4.73-0.68,2.86-.94,5.82-1.46,9.28,3-1.52,5.46-2.64,7.78-4a5,5,0,0,1,5.57.06c2.43,1.38,4.74,3.08,7.8,3.9a58.21,58.21,0,0,0-1.3-7.62c-0.88-2.86-.1-4.78,2.13-6.57,2-1.62,3.8-3.52,6.14-5.72a80.74,80.74,0,0,0-8.58-1.26c-2.75-.1-4.13-1.31-5.06-3.82a74.51,74.51,0,0,0-3.73-7.45A46.11,46.11,0,0,0,36,145.64c-1.34,3.85-3.57,6.08-8,5.81C26.18,151.34,24.26,151.9,21.78,152.23Zm264.54-25.34a7.43,7.43,0,0,0-4.32,1.9c-3.21,2.55-6.23,2.69-9.54.18-1.06-.81-3.32-1.79-3.71-1.39-1.07,1.09.1,2.72,0.27,4.15a22,22,0,0,0,.61,3,4,4,0,0,1-1.37,4.26c-1.72,1.69-3.75,3.2-5.07,5.67,2.51,0.25,4.71.56,6.93,0.68,2,0.1,3.37.62,4.24,2.66a72.79,72.79,0,0,0,3.82,6.85c1.15-2.6,2.14-4.58,2.91-6.64s1.84-3.1,4.13-3.24a60.85,60.85,0,0,0,7.3-1.35c-2.17-2-3.85-3.74-5.66-5.28a4,4,0,0,1-1.56-4.48A64.08,64.08,0,0,0,286.32,126.89Zm48.19-10.12c-4.79-2.19-4.65-5.92-4-10.17-3.54,3.5-7,2.67-11.33-.12,2.32,5,1.21,8.31-2.53,11.1,4.87-.57,7.5,1.91,9.34,6C326.89,118.86,329.83,117.14,334.51,116.77ZM88.93,79.23c4.81-.38,7.34,2.24,9.27,6.15,0.85-5,4.14-6.38,8.52-6.77-4.52-2.23-4.93-5.84-3.93-10.44-3.49,4-7,3-11.24.2C93.45,73.19,92.93,76.6,88.93,79.23Z" transform="translate(-2.55 -4.55)"/><path class="cls-2" d="M383.61,271.19c-1.77-.57-1.83,1.21-2.27,1.95A156.41,156.41,0,0,1,274.91,346c-20.23,3.68-40.34,3.07-60.44-.8-0.64-.12-1.27-0.37-2.48-0.73,4.42-1.83,8.43-3.15,12.1-5.34A47.48,47.48,0,0,0,242,320.64a46.48,46.48,0,0,0,4.28-34.74c-4.17-15.84-14-26.89-29.17-33a6.85,6.85,0,0,1-4.4-4.71,61.37,61.37,0,0,0-27-33.18,60.49,60.49,0,0,0-38.1-8.73,59.5,59.5,0,0,0-21.74,6.33,3.46,3.46,0,0,1-4.3-.4,55.05,55.05,0,0,0-30.23-11.4c-1.82-.13-2.32-0.71-2.39-2.53a158.93,158.93,0,0,1,16.15-77.73,153.23,153.23,0,0,1,44.62-54.88c24.83-19.13,52.91-30.21,84.3-32.52,3.33-.24,6.67-0.34,10-0.56,1.88-.12,2.7.08,1.48,2.24a153.73,153.73,0,0,0-13.71,33,158.6,158.6,0,0,0-5.73,56.25A154.15,154.15,0,0,0,237,170.68,157.55,157.55,0,0,0,255,203.32a157.42,157.42,0,0,0,128.66,66v1.83Z" transform="translate(-2.55 -4.55)"/><path class="cls-3" d="M2.61,282.75c1.66,0.05,1.12-1.42,1.34-2.17a45.92,45.92,0,0,1,19.75-26c5.36-3.46,11.51-4.61,17.59-5.84,2.08-.42,2.73-1.45,3.32-3.27,5.07-15.74,15.56-25.89,31.54-30.35,4.35-1.21,8.72-.7,13.12-0.78a32.73,32.73,0,0,1,10.92,1.27,45.61,45.61,0,0,1,19.17,12.12c2.87,3,2.75,2.91,6.36.32a44.6,44.6,0,0,1,22.47-8.49c6.49-.82,9.52-0.24,11.27.09a45.11,45.11,0,0,1,18.28,6.15,61.67,61.67,0,0,1,8.44,5.65,48.42,48.42,0,0,1,16,27.34c0.6,2.87,1.64,4.16,4.72,4.82,20,4.25,32.54,23.94,26.08,44.91-2,6.45-5.83,11.54-11.06,16.11-7.9,6.9-16.86,8.63-26.73,8a3.21,3.21,0,0,0-3.58,1.89A42.71,42.71,0,0,1,171.9,353.4c-12.87,5.94-25.92,6-38.81-.27a35.54,35.54,0,0,1-9.71-6.53c-1.21-1.21-2.13-1.11-3.39-.3a40.08,40.08,0,0,1-22.34,6.22c-9.67-.08-18.8-2.7-26.7-8.74a42.7,42.7,0,0,1-7.46-7.47c-1.22-1.53-2.43-1.9-4.42-1.28a40.54,40.54,0,0,1-24.39.12,45.67,45.67,0,0,1-18.15-10.5A42.41,42.41,0,0,1,3.81,302.89c-0.15-.63-0.45-1.07-1.2-0.66V285.79c0.31,0,.72.08,0.65-0.43a1.67,1.67,0,0,0-.65-0.18v-2.43Z" transform="translate(-2.55 -4.55)"/><path class="cls-1" d="M2.61,285.19a1.67,1.67,0,0,1,.65.18c0.07,0.51-.34.41-0.65,0.43v-0.61Z" transform="translate(-2.55 -4.55)"/><path class="cls-2" d="M343.52,168.15c-0.69,4.53-1.25,8.53-1.93,12.52a4,4,0,0,0,1.48,4.24c3.08,2.59,5.94,5.45,9.14,8.43-4.18,1.5-8.3,1.76-12.32,2.43a3.69,3.69,0,0,0-3.28,2.55c-1.54,3.79-3.39,7.46-5.38,11.74-2.06-3.92-3.86-7.16-5.48-10.49a5.17,5.17,0,0,0-4.86-3.36c-3.74-.17-7.46-0.77-11.58-1.23,2.59-3.57,5.83-6.26,8.67-9.28a3.87,3.87,0,0,0,1.16-4c-0.93-3.93-1.71-7.89-2.69-12.47,3.34,1.57,6.35,2.64,9,4.3,3.35,2.11,6.2,2,9.38-.33A97.59,97.59,0,0,1,343.52,168.15Z" transform="translate(-2.55 -4.55)"/><path class="cls-2" d="M21.78,152.23c2.47-.33,4.4-0.89,6.28-0.77,4.39,0.27,6.61-2,8-5.81a46.11,46.11,0,0,1,2.82-5.53,74.51,74.51,0,0,1,3.73,7.45c0.93,2.51,2.31,3.72,5.06,3.82a80.74,80.74,0,0,1,8.58,1.26c-2.34,2.2-4.13,4.1-6.14,5.72-2.24,1.79-3,3.72-2.13,6.57a58.21,58.21,0,0,1,1.3,7.62c-3.06-.83-5.37-2.52-7.8-3.9a5,5,0,0,0-5.57-.06c-2.32,1.4-4.81,2.51-7.78,4,0.52-3.46.78-6.42,1.46-9.28,0.51-2.13-.3-3.38-1.73-4.73C25.8,156.71,23.57,155,21.78,152.23Z" transform="translate(-2.55 -4.55)"/><path class="cls-2" d="M286.32,126.89a64.08,64.08,0,0,1-1,6.93,4,4,0,0,0,1.56,4.48c1.82,1.54,3.5,3.24,5.66,5.28a60.85,60.85,0,0,1-7.3,1.35c-2.29.14-3.38,1.26-4.13,3.24s-1.76,4-2.91,6.64a72.79,72.79,0,0,1-3.82-6.85c-0.87-2-2.28-2.56-4.24-2.66-2.21-.11-4.42-0.42-6.93-0.68,1.32-2.47,3.34-4,5.07-5.67a4,4,0,0,0,1.37-4.26,22,22,0,0,1-.61-3c-0.17-1.43-1.34-3.06-.27-4.15,0.39-.4,2.65.59,3.71,1.39,3.31,2.51,6.33,2.37,9.54-.18A7.43,7.43,0,0,1,286.32,126.89Z" transform="translate(-2.55 -4.55)"/><path class="cls-2" d="M334.51,116.77c-4.68.37-7.62,2.09-8.5,6.82-1.84-4.09-4.47-6.57-9.34-6,3.74-2.79,4.86-6.1,2.53-11.1,4.3,2.79,7.79,3.62,11.33.12C329.86,110.85,329.72,114.58,334.51,116.77Z" transform="translate(-2.55 -4.55)"/><path class="cls-2" d="M88.93,79.23c4-2.63,4.52-6,2.63-10.86,4.23,2.8,7.75,3.8,11.24-.2-1,4.59-.59,8.21,3.93,10.44-4.38.39-7.67,1.79-8.52,6.77C96.27,81.47,93.74,78.86,88.93,79.23Z" transform="translate(-2.55 -4.55)"/></svg>