<?xml version="1.0" encoding="utf-8"?>
<!-- Generator: Adobe Illustrator 19.2.0, SVG Export Plug-In . SVG Version: 6.00 Build 0)  -->
<svg version="1.1" id="Layer_1" xmlns="http://www.w3.org/2000/svg" xmlns:xlink="http://www.w3.org/1999/xlink" x="0px" y="0px"
	 viewBox="0 0 352 170" style="enable-background:new 0 0 352 170;" xml:space="preserve">
<style type="text/css">
	.st0{fill:#828282;}
	.st1{fill:none;stroke:#DBDBDB;stroke-width:0.72;stroke-linecap:square;stroke-miterlimit:10;}
	.st2{fill:none;stroke:#DBDBDB;stroke-width:0.72;stroke-linecap:square;stroke-miterlimit:10;stroke-dasharray:3.6602,3.6602;}
	.st3{fill:#BCBCBC;}
	.st4{font-family:'BebasNeue';}
	.st5{font-size:12px;}
	.st6{letter-spacing:1;}
	.st7{fill:#848484;}
	.st8{font-family:'ArnoPro-Caption';}
	.st9{font-size:9px;}
	.st10{font-size:8px;}
	.st11{fill:none;stroke:#999999;stroke-width:1.8158;stroke-linecap:round;stroke-miterlimit:10;}
	.st12{fill:#999999;}
	.st13{fill:none;stroke:#999999;stroke-width:1.8158;stroke-miterlimit:10;}
</style>
<circle class="st0" cx="175.9" cy="85.5" r="3.6"/>
<circle class="st0" cx="339.6" cy="85.5" r="3.6"/>
<g>
	<g>
		<line class="st1" x1="93.5" y1="8" x2="93.5" y2="9.8"/>
		<line class="st2" x1="93.5" y1="13.5" x2="93.5" y2="158"/>
		<line class="st1" x1="93.5" y1="159.9" x2="93.5" y2="161.7"/>
	</g>
</g>
<g>
	<g>
		<line class="st1" x1="257.7" y1="8" x2="257.7" y2="9.8"/>
		<line class="st2" x1="257.7" y1="13.5" x2="257.7" y2="158"/>
		<line class="st1" x1="257.7" y1="159.9" x2="257.7" y2="161.7"/>
	</g>
</g>
<text transform="matrix(1 0 0 1 28.188 88.9937)" class="st3 st4 st5 st6">Research</text>
<text transform="matrix(1 0 0 1 108.3693 88.9937)" class="st3 st4 st5 st6">Insights</text>
<text transform="matrix(1 0 0 1 199.2835 88.9937)" class="st3 st4 st5 st6">Ideation</text>
<text transform="matrix(1 0 0 1 270.8887 88.9937)" class="st3 st4 st5 st6">Prototype</text>
<text transform="matrix(1.841635e-02 -0.9998 0.9998 1.841635e-02 9.0694 94.5289)" class="st7 st8 st9">Issue</text>
<g>
	<text transform="matrix(1.329490e-02 -0.9999 0.9999 1.329490e-02 177.5871 123.8334)" class="st7 st8 st10">Problem             definition</text>
</g>
<g>
	<text transform="matrix(4.489659e-11 -1 1 4.489659e-11 349.9277 100.9395)" class="st7 st8 st9">Solution</text>
</g>
<g>
	<g>
		<path class="st11" d="M13.5,84.8c0,0,73-167.9,157.5-8"/>
		<g>
			<polygon class="st12" points="165.9,76 170.2,75.6 173,72.2 174,82.5 			"/>
		</g>
	</g>
</g>
<g>
	<g>
		<path class="st13" d="M176.5,83c0,0,74-166.3,158.6-6.4"/>
		<g>
			<polygon class="st12" points="329.9,75.9 334.3,75.5 337,72.1 338,82.5 			"/>
		</g>
	</g>
</g>
<g>
	<g>
		<path class="st13" d="M335.8,94.6c-14.6,28.3-83.2,144.1-159.2-6.2"/>
		<g>
			<polygon class="st12" points="330.8,95.5 335.2,95.8 338.1,99.1 338.7,88.8 			"/>
		</g>
	</g>
</g>
<g>
	<g>
		<path class="st11" d="M171.4,94.4c-14.5,27.9-82,140.5-157.9-9.6"/>
		<g>
			<polygon class="st12" points="166.4,95.3 170.7,95.6 173.6,98.9 174.2,88.5 			"/>
		</g>
	</g>
</g>
</svg>
